<svg width="1748" height="1363" viewBox="0 0 1748 1363" fill="none" xmlns="http://www.w3.org/2000/svg">
<path d="M32 990L76 1327L1686.5 1326.5L1745.5 913.5C1757.9 852.7 1719 819.167 1698 810L1494 752.5L1483 569.5C1477.8 511.9 1438.5 488.833 1419.5 484.5L1134.5 453.5C1131.3 385.1 1081.17 365.333 1056.5 364H408.5L331.5 626C241.5 631.5 228.667 682.5 226 706.5V857L76.5 920C41.3 937.6 32.1667 974 32 990Z" fill="#DBE8F0"/>
<path d="M173 971L227.5 1320H1504L1542 1067.5C1543.6 1045.9 1526.33 1022.5 1517.5 1013.5L1391.5 957.5V842.5C1393.5 817.3 1372.67 796 1362 788.5L1294.5 764L1258.5 624C1246.1 582.4 1206.67 576.667 1188.5 579H722.5C684.5 582.6 664.667 621.167 659.5 640C580.667 647.24 425.3 661.377 434.5 660C391.3 663.6 377.5 694.5 376 709.5V874L207 917C172.6 924.2 170 956 173 971Z" fill="#CCD9E3"/>
<path d="M180 998L227.5 1317.5H1222.5V1198.5C1222.5 1148.1 1162.5 1130.83 1132.5 1128.5L1053.5 899H484C413.6 901 402 949.167 405 973L180 998Z" fill="#BCCED8"/>
<rect x="1003" y="951" width="41" height="370" fill="#0F2132"/>
<rect x="985" y="1204" width="75" height="78" fill="#2E4862"/>
<path d="M897 1255H1195C1206.05 1255 1215 1263.95 1215 1275V1288H897V1255Z" fill="#FBD15C"/>
<path d="M1152 784V667C1158.4 659.8 1165.33 659 1168 659.5C1183.6 658.3 1186.17 673 1185.5 680.5C1190.3 833.3 1173.17 885.167 1164 892C1152.4 921.2 1068.83 935.833 1028.5 939.5C938.1 945.5 912.833 932 911.5 924.5L1152 784Z" fill="#FBD15C"/>
<path d="M1214 1299.5C1214 1311.37 1204.37 1321 1192.5 1321C1180.63 1321 1171 1311.37 1171 1299.5C1171 1287.63 1180.63 1278 1192.5 1278C1204.37 1278 1214 1287.63 1214 1299.5Z" fill="#0F2132"/>
<path d="M872 1299.5C872 1311.37 862.374 1321 850.5 1321C838.626 1321 829 1311.37 829 1299.5C829 1287.63 838.626 1278 850.5 1278C862.374 1278 872 1287.63 872 1299.5Z" fill="#0F2132"/>
<rect x="922" y="879" width="202" height="72" rx="25" fill="#2E4862"/>
<path d="M562 1305L650.5 1252L712.5 1257.5L727.5 1301.5V1317C727.9 1319 724.333 1319.83 722.5 1320H567.5C564.3 1320 562.5 1310 562 1305Z" fill="#57548D"/>
<path d="M781.5 1306.5L856 1240L921.5 1235L943.5 1275.5L945.5 1291C946.7 1293.4 942.667 1296 940.5 1297L792.5 1321C787.3 1321.8 783 1311.67 781.5 1306.5Z" fill="#57548D"/>
<path d="M643 842C681 816 826.5 784.5 894.5 772L950.5 842C880 870.5 738 924 728.5 928.5C718.968 933.015 711.5 946 711.5 950C711.5 954.561 717 1136.83 722 1228.5H636C622.5 1166.5 606 931 609 895C611.4 866.2 632.667 847.667 643 842Z" fill="#3D3D79"/>
<path d="M753 867.5C783 840.5 850.833 800.667 891.5 775H1007.5C1051.83 797.667 1141.4 843.7 1145 846.5C1149.5 850 1125.5 877 1114.5 882.5C1103.5 888 1002 910 910.5 928C837.3 942.4 848.039 948.045 844.5 962.5C840.961 976.955 883.99 1129.62 911.5 1199L832 1232C798.849 1165.7 743.571 1013.79 729.5 944.5C720.3 921.7 740.333 886 753 867.5Z" fill="#57548D"/>
<path d="M905.5 480L850.5 594L890.5 636.5C885.7 640.9 888.5 729.333 890.5 774.5C969.7 774.5 1017.83 788.833 1032 796C1045.2 798 1113.5 829.833 1146 845.5C1151.6 847.5 1152 799 1151.5 774.5L1110.5 503C1099.3 467.4 1059.17 453.833 1040.5 451.5C1028 452.167 994.5 453.1 960.5 451.5C926.5 449.9 909.667 469.833 905.5 480Z" fill="#FF8578"/>
<path d="M890.5 635.5L897 497L849.5 592.5L890.5 635.5Z" fill="#F3685E"/>
<path d="M987.5 639L1017 542L975.5 634L987.5 639Z" fill="#F8B094"/>
<path d="M1103.04 566C1103.95 624.63 1099.5 721 1044.66 733.408C1044.66 733.408 1088.43 688 1103.04 566Z" fill="#F3685E"/>
<path d="M403 530H614L690 729.5H476L403 530Z" fill="#8495A0"/>
<path d="M388 530.5H599L675 730H461L388 530.5Z" fill="#ACB5BA"/>
<path d="M680 717H756V730H680V717Z" fill="#8495A0"/>
<path d="M919.5 1237.5L901 1200L848 1221L857 1241C863.167 1244.67 879 1252.1 893 1252.5C907 1252.9 916.5 1242.67 919.5 1237.5Z" fill="#FCC1A6"/>
<path d="M651 1260.5L649 1229H707.5V1257.5C707.5 1273.1 669.833 1266 651 1260.5Z" fill="#FCC1A6"/>
<path d="M684.5 525.5C674.1 522.7 647.5 551.5 648 555.5C648.5 559.5 652 559.5 655.5 559.5C658.3 559.5 667.667 550.166 672 545.5C671.167 551 671.2 565.1 678 577.5C684.8 589.9 707.834 586.666 718.5 583.5C733.167 604 771.6 655.3 808 696.5C844.4 737.7 878.167 725.666 890.5 714.5V635.5L850 594L837 622C830.5 622.5 697.5 529 684.5 525.5Z" fill="#F8B094"/>
<path d="M918.5 444C875.3 385.6 890.167 320.167 904.5 295.5C942.667 301.167 1022.6 314.1 1025 314.5C1027.4 314.9 1024 407.333 1022 453.5C1019 459.5 978.5 492.5 966.5 485.5C956.9 479.9 959.833 457.833 962.5 447.5C950.833 449.833 925.7 452.4 918.5 444Z" fill="#FCC1A6"/>
<path d="M1078.5 679.5L977.5 643C977.5 651.5 960 669 960 669C960 669 893 687 782 699C735.2 664.2 709.5 707.5 702.5 733.5C798.667 732.167 998.4 730.3 1028 733.5C1057.6 736.7 1074 698.833 1078.5 679.5Z" fill="#FFC1A4"/>
<path d="M936.552 307.243C970.152 304.043 975.886 308.576 974.552 311.243C982.552 315.058 977.886 323.833 974.552 327.743C973.352 334.143 981.386 343.076 985.552 346.743C986.352 383.943 992.219 379.243 995.052 372.243C991.552 344.743 1014.55 339.743 1017.55 346.743C1025.55 347.743 1018.55 414.743 1022.55 413.243C1025.75 412.043 1029.55 407.41 1031.05 405.243C1044.05 368.743 1049.05 347.243 1051.55 339.743C1054.05 332.243 1047.55 300.243 1043.05 300.243C1031.05 299.743 1035.05 265.743 1028.05 265.743C993.552 269.243 1008.55 230.743 976.052 246.743C943.552 262.743 957.052 232.743 936.552 244.743C916.052 256.743 904.052 242.743 888.052 240.243C872.052 237.743 853.552 254.743 857.552 281.243C860.752 302.443 879.219 310.076 888.052 311.243C890.219 311.243 902.952 310.443 936.552 307.243Z" fill="#3D3D79"/>
<rect x="242" y="730" width="1099" height="41" rx="16" fill="#141B57"/>
<path d="M292 771H326V1320H292V771Z" fill="#D9D9D9"/>
<path d="M1070 771H1104V1320H1070V771Z" fill="#D9D9D9"/>
<path d="M1257 771H1291V1320H1257V771Z" fill="#A69696"/>
<path d="M477 771H511V1320H477V771Z" fill="#A69696"/>
<rect y="1320" width="1732" height="43" fill="#81A4B8"/>
<path d="M1279.5 1129C1289.9 1134.2 1298.83 1135.83 1302 1136C1303.33 1135.33 1307.1 1134 1311.5 1134C1315.9 1134 1326 1121.67 1330.5 1115.5C1315.67 1050.17 1285.5 919.9 1283.5 921.5C1281.5 923.1 1256.67 898.167 1244.5 885.5C1212.5 947.9 1217.5 994.167 1224 1009.5C1228 1010.7 1239.33 1049 1244.5 1068C1242.9 1085.2 1267.17 1115.83 1279.5 1129Z" fill="url(#paint0_linear_50_36)"/>
<path d="M1433.29 1118.48C1423.35 1125.74 1414.27 1129.17 1410.98 1129.97C1409.45 1129.58 1405.23 1129.03 1400.61 1129.92C1395.98 1130.81 1383.01 1120.64 1377.1 1115.45C1380.21 1047.72 1387.02 912.56 1389.43 913.74C1391.84 914.919 1413.18 885.184 1423.54 870.169C1469.11 925.492 1472.69 972.337 1468.79 988.845C1464.82 990.845 1460.22 1031.08 1458.42 1050.95C1463.39 1067.67 1443.74 1102.93 1433.29 1118.48Z" fill="url(#paint1_linear_50_36)"/>
<path d="M1283 937C1278.6 890.6 1316.5 835.333 1336 813.5C1333 820.5 1388 882 1391 890.5C1394 899 1391 941.5 1391 943.5C1391 945.5 1396.5 1044 1395.5 1093.5C1384.3 1123.5 1360.5 1131.67 1350 1132C1332 1128.8 1321.17 1115.33 1318 1109C1291.6 1053 1283.67 971 1283 937Z" fill="url(#paint2_linear_50_36)"/>
<path d="M1346.5 1025C1344.1 1001 1335.83 888.667 1332 835.5C1339 893.167 1353 1017.4 1353 1053C1350.2 1085.8 1357.17 1130 1361 1148H1349.5C1347.5 1142 1349.5 1055 1346.5 1025Z" fill="#767AEA"/>
<path d="M1314 1148H1304C1300 1123.5 1291 1071.4 1287 1059C1282 1043.5 1257 950.5 1255.5 940.5C1254.19 931.76 1249.44 914.235 1246.26 905.618C1244.74 901.955 1244.06 900.467 1245 902.5C1245.38 903.319 1245.8 904.376 1246.26 905.618C1249.61 913.668 1257.06 932.223 1260.5 947C1265.5 968.5 1287.5 1043.5 1290.5 1053C1293.5 1062.5 1300 1114.5 1308 1128.5C1309.17 1134.17 1312 1146 1314 1148Z" fill="#767AEA"/>
<path d="M1400 1148H1390C1390 1146.4 1391.33 1138.67 1392 1135C1397.2 1124.6 1409.5 1067.33 1415 1040C1417 1036.8 1421.17 1006.67 1423 992C1423 986 1429.33 958.167 1432.5 945C1434.9 935.8 1439.83 907.5 1442 894.5C1443.2 897.7 1440.17 919.5 1438.5 930C1432.9 938.8 1424.5 1003.67 1421 1035C1417.5 1039.5 1403.33 1113.67 1400 1148Z" fill="#767AEA"/>
<path d="M1282.5 1148H1426L1413.5 1320H1291L1282.5 1148Z" fill="#A9B6BC"/>
<rect x="838" width="324" height="198" fill="#FF8578"/>
<path d="M1008.01 38L1021.23 41.6408L992.125 147.403L978.897 143.762L1008.01 38Z" fill="white"/>
<path d="M1040.58 67.5071L1085.29 87.5468L1079.98 99.4099L1035.26 79.3702L1040.58 67.5071Z" fill="white"/>
<path d="M1035.26 112.547L1079.98 92.5072L1085.29 104.37L1040.58 124.41L1035.26 112.547Z" fill="white"/>
<path d="M1078 88H1086V104H1078V88Z" fill="white"/>
<path d="M958.683 124.41L913.969 104.37L919.285 92.5068L964 112.547L958.683 124.41Z" fill="white"/>
<path d="M964 79.3701L919.285 99.4095L913.969 87.5464L958.683 67.507L964 79.3701Z" fill="white"/>
<path d="M921.261 103.917H913.261V87.9167H921.261V103.917Z" fill="white"/>
<rect x="1150" y="383" width="184" height="132" fill="#616BF0"/>
<path d="M1229.7 496.416C1222.79 496.416 1217.72 495.3 1214.48 493.068C1211.24 490.836 1209.62 486.84 1209.62 481.08C1209.62 478.488 1209.69 476.256 1209.83 474.384C1210.05 472.44 1210.23 470.568 1210.37 468.768C1210.59 466.968 1210.7 464.916 1210.7 462.612C1210.7 461.316 1210.26 460.092 1209.4 458.94C1208.54 457.716 1207.02 456.708 1204.86 455.916C1202.78 455.124 1199.79 454.692 1195.9 454.62V445.332C1199.79 445.26 1202.78 444.828 1204.86 444.036C1207.02 443.244 1208.54 442.272 1209.4 441.12C1210.26 439.896 1210.7 438.636 1210.7 437.34C1210.7 435.108 1210.59 433.092 1210.37 431.292C1210.23 429.42 1210.05 427.512 1209.83 425.568C1209.69 423.624 1209.62 421.392 1209.62 418.872C1209.62 413.04 1211.24 409.044 1214.48 406.884C1217.72 404.652 1222.79 403.536 1229.7 403.536H1238.02V411.96H1233.59C1230.64 411.96 1228.37 412.176 1226.79 412.608C1225.2 413.04 1224.09 413.796 1223.44 414.876C1222.86 415.956 1222.58 417.504 1222.58 419.52C1222.58 422.4 1222.65 425.244 1222.79 428.052C1223.01 430.86 1223.12 433.884 1223.12 437.124C1223.12 441.228 1222.29 444.216 1220.63 446.088C1218.98 447.888 1216.2 449.112 1212.32 449.76V450.192C1216.2 450.84 1218.98 452.1 1220.63 453.972C1222.29 455.772 1223.12 458.724 1223.12 462.828C1223.12 466.068 1223.01 469.092 1222.79 471.9C1222.65 474.708 1222.58 477.552 1222.58 480.432C1222.58 482.448 1222.86 483.996 1223.44 485.076C1224.09 486.156 1225.2 486.912 1226.79 487.344C1228.37 487.776 1230.64 487.992 1233.59 487.992H1238.02V496.416H1229.7ZM1248.13 496.416V487.992H1252.56C1255.51 487.992 1257.78 487.776 1259.36 487.344C1260.95 486.912 1262.03 486.156 1262.6 485.076C1263.18 483.996 1263.47 482.448 1263.47 480.432C1263.47 477.552 1263.39 474.708 1263.25 471.9C1263.11 469.092 1263.03 466.068 1263.03 462.828C1263.03 458.724 1263.86 455.772 1265.52 453.972C1267.17 452.1 1269.95 450.84 1273.83 450.192V449.76C1269.95 449.112 1267.17 447.888 1265.52 446.088C1263.86 444.216 1263.03 441.228 1263.03 437.124C1263.03 433.884 1263.11 430.86 1263.25 428.052C1263.39 425.244 1263.47 422.4 1263.47 419.52C1263.47 417.504 1263.18 415.956 1262.6 414.876C1262.03 413.796 1260.95 413.04 1259.36 412.608C1257.78 412.176 1255.51 411.96 1252.56 411.96H1248.13V403.536H1256.45C1263.36 403.536 1268.43 404.652 1271.67 406.884C1274.91 409.044 1276.53 413.04 1276.53 418.872C1276.53 421.392 1276.43 423.624 1276.21 425.568C1276.07 427.512 1275.89 429.42 1275.67 431.292C1275.45 433.092 1275.35 435.108 1275.35 437.34C1275.35 438.636 1275.78 439.896 1276.64 441.12C1277.51 442.272 1279.02 443.244 1281.18 444.036C1283.34 444.828 1286.36 445.26 1290.25 445.332V454.62C1286.36 454.692 1283.34 455.124 1281.18 455.916C1279.02 456.708 1277.51 457.716 1276.64 458.94C1275.78 460.092 1275.35 461.316 1275.35 462.612C1275.35 464.916 1275.45 466.968 1275.67 468.768C1275.89 470.568 1276.07 472.44 1276.21 474.384C1276.43 476.256 1276.53 478.488 1276.53 481.08C1276.53 486.84 1274.91 490.836 1271.67 493.068C1268.43 495.3 1263.36 496.416 1256.45 496.416H1248.13Z" fill="white"/>
<rect x="365" y="77" width="392" height="365" fill="#112B46"/>
<path d="M429 151H491V157H429V151Z" fill="#FF8578"/>
<path d="M480 331H607V337H480V331Z" fill="#FF8578"/>
<path d="M433 381H498V387H433V381Z" fill="#FF8578"/>
<path d="M607 381H672V387H607V381Z" fill="#FF8578"/>
<path d="M596 356H723V362H596V356Z" fill="#FF8578"/>
<path d="M621 306H670V312H621V306Z" fill="#FF8578"/>
<path d="M476 252H522V258H476V252Z" fill="#FF8578"/>
<path d="M552 176H614V182H552V176Z" fill="#FF8578"/>
<path d="M499 151H560V157H499V151Z" fill="#FBD15C"/>
<path d="M522 381H588V387H522V381Z" fill="#FBD15C"/>
<path d="M617 331H669V337H617V331Z" fill="#FBD15C"/>
<path d="M471 306H527V312H471V306Z" fill="#FBD15C"/>
<path d="M527 281H595V287H527V281Z" fill="#FBD15C"/>
<path d="M539 201H669V207H539V201Z" fill="#FBD15C"/>
<path d="M480 201H522V207H480V201Z" fill="#FBD15C"/>
<path d="M452 176H539V182H452V176Z" fill="#616BF0"/>
<path d="M451 356H578V362H451V356Z" fill="#616BF0"/>
<path d="M540 306H594V312H540V306Z" fill="#616BF0"/>
<path d="M437 281H518V287H437V281Z" fill="#616BF0"/>
<path d="M538 252H583V258H538V252Z" fill="#616BF0"/>
<path d="M508 226H655V232H508V226Z" fill="#616BF0"/>
<path d="M399 170H405V185H399V170Z" fill="#D9D9D9"/>
<path d="M399 380H405V387H399V380Z" fill="#D9D9D9"/>
<path d="M399 350H405V365H399V350Z" fill="#D9D9D9"/>
<path d="M399 320H405V335H399V320Z" fill="#D9D9D9"/>
<path d="M399 290H405V305H399V290Z" fill="#D9D9D9"/>
<path d="M399 260H405V275H399V260Z" fill="#D9D9D9"/>
<path d="M399 230H405V245H399V230Z" fill="#D9D9D9"/>
<path d="M399 200H405V215H399V200Z" fill="#D9D9D9"/>
<rect x="365" y="77" width="392" height="39" fill="#394073"/>
<rect x="240" y="28" width="208" height="139" fill="#FBD15C"/>
<path d="M376.912 127.338L361.173 111.598C366.256 105.111 369.008 97.1012 368.984 88.8594C368.984 81.5168 366.807 74.339 362.728 68.2338C358.648 62.1287 352.85 57.3703 346.067 54.5604C339.283 51.7505 331.818 51.0153 324.617 52.4477C317.415 53.8802 310.8 57.416 305.608 62.6081C300.416 67.8001 296.88 74.4151 295.448 81.6167C294.015 88.8182 294.75 96.2828 297.56 103.067C300.37 109.85 305.129 115.648 311.234 119.728C317.339 123.807 324.517 125.984 331.859 125.984C340.101 126.008 348.111 123.256 354.598 118.173L370.338 133.912C371.214 134.776 372.395 135.261 373.625 135.261C374.855 135.261 376.036 134.776 376.912 133.912C377.345 133.481 377.688 132.969 377.922 132.405C378.156 131.841 378.277 131.236 378.277 130.625C378.277 130.014 378.156 129.409 377.922 128.845C377.688 128.281 377.345 127.769 376.912 127.338ZM304.016 88.8594C304.016 83.3524 305.649 77.9691 308.708 73.3902C311.768 68.8113 316.116 65.2425 321.204 63.1351C326.292 61.0277 331.89 60.4763 337.291 61.5507C342.693 62.625 347.654 65.2769 351.548 69.1709C355.442 73.0649 358.094 78.0262 359.168 83.4273C360.242 88.8285 359.691 94.427 357.584 99.5147C355.476 104.603 351.907 108.951 347.329 112.011C342.75 115.07 337.366 116.703 331.859 116.703C324.478 116.693 317.402 113.756 312.182 108.537C306.963 103.317 304.026 96.2409 304.016 88.8594Z" fill="black"/>
<defs>
<linearGradient id="paint0_linear_50_36" x1="1440.7" y1="973.202" x2="1438.93" y2="1173.34" gradientUnits="userSpaceOnUse">
<stop stop-color="#767AEA"/>
<stop offset="1" stop-color="#3D3D79"/>
</linearGradient>
<linearGradient id="paint1_linear_50_36" x1="1440.7" y1="973.202" x2="1438.93" y2="1173.34" gradientUnits="userSpaceOnUse">
<stop stop-color="#767AEA"/>
<stop offset="1" stop-color="#3D3D79"/>
</linearGradient>
<linearGradient id="paint2_linear_50_36" x1="1333" y1="939.5" x2="1352" y2="1132" gradientUnits="userSpaceOnUse">
<stop stop-color="#616BF0"/>
<stop offset="1" stop-color="#584EB0"/>
</linearGradient>
</defs>
</svg>
