<svg id="esaiemYW4lP1" xmlns="http://www.w3.org/2000/svg" xmlns:xlink="http://www.w3.org/1999/xlink" viewBox="0 0 1748 1363" shape-rendering="geometricPrecision" text-rendering="geometricPrecision"><defs><linearGradient id="esaiemYW4lP31-fill" x1="1440.7" y1="973.202" x2="1438.93" y2="1173.34" spreadMethod="pad" gradientUnits="userSpaceOnUse" gradientTransform="translate(0 0)"><stop id="esaiemYW4lP31-fill-0" offset="0%" stop-color="#767aea"/><stop id="esaiemYW4lP31-fill-1" offset="100%" stop-color="#3d3d79"/></linearGradient><linearGradient id="esaiemYW4lP32-fill" x1="1440.7" y1="973.202" x2="1438.93" y2="1173.34" spreadMethod="pad" gradientUnits="userSpaceOnUse" gradientTransform="translate(0 0)"><stop id="esaiemYW4lP32-fill-0" offset="0%" stop-color="#767aea"/><stop id="esaiemYW4lP32-fill-1" offset="100%" stop-color="#3d3d79"/></linearGradient><linearGradient id="esaiemYW4lP33-fill" x1="1333" y1="939.5" x2="1352" y2="1132" spreadMethod="pad" gradientUnits="userSpaceOnUse" gradientTransform="translate(0 0)"><stop id="esaiemYW4lP33-fill-0" offset="0%" stop-color="#616bf0"/><stop id="esaiemYW4lP33-fill-1" offset="100%" stop-color="#584eb0"/></linearGradient></defs><path d="M32,990l44,337l1610.5-.5l59-413c12.4-60.8-26.5-94.333-47.5-103.5l-204-57.5-11-183c-5.2-57.6-44.5-80.667-63.5-85l-285-31c-3.2-68.4-53.33-88.167-78-89.5h-648l-77,262c-90,5.5-102.833,56.5-105.5,80.5v150.5L76.5,920C41.3,937.6,32.167,974,32,990Z" fill="#dbe8f0"/><path d="M173,971l54.5,349h1276.5l38-252.5c1.6-21.6-15.67-45-24.5-54l-126-56v-115c2-25.2-18.83-46.5-29.5-54L1294.5,764l-36-140c-12.4-41.6-51.83-47.333-70-45h-466c-38,3.6-57.833,42.167-63,61l-225,20c-43.2,3.6-57,34.5-58.5,49.5v164.5L207,917c-34.4,7.2-37,39-34,54Z" fill="#ccd9e3"/><path d="M180,998l47.5,319.5h995v-119c0-50.4-60-67.67-90-70l-79-229.5h-569.5c-70.4,2-82,50.167-79,74L180,998Z" fill="#bcced8"/><path d="M1003,951h41v370h-41Z" fill="#0f2132"/><path d="M985,1204h75v78h-75Z" fill="#2e4862"/><path d="M897,1255h298c11.05,0,20,8.95,20,20v13h-318v-33Zm255-471v-117c6.4-7.2,13.33-8,16-7.5c15.6-1.2,18.17,13.5,17.5,21c4.8,152.8-12.33,204.667-21.5,211.5-11.6,29.2-95.17,43.833-135.5,47.5-90.4,6-115.667-7.5-117-15L1152,784Z" fill="#fbd15c"/><path d="M1214,1299.5c-.005518,11.871836-9.628164,21.494482-21.5,21.5-11.871836-.005518-21.494482-9.628164-21.5-21.5.005518-11.871836,9.628164-21.494482,21.5-21.5c11.871836.005518,21.494482,9.628164,21.5,21.5Zm-342,0c0,11.87-9.626,21.5-21.5,21.5s-21.5-9.63-21.5-21.5s9.626-21.5,21.5-21.5s21.5,9.63,21.5,21.5Z" fill="#0f2132"/><rect width="202" height="72" rx="25" ry="25" transform="translate(922 879)" fill="#2e4862"/><path d="M562,1305l88.5-53l62,5.5l15,44v15.5c.4,2-3.167,2.83-5,3h-155c-3.2,0-5-10-5.5-15Zm219.5,1.5L856,1240l65.5-5l22,40.5l2,15.5c1.2,2.4-2.833,5-5,6l-148,24c-5.2.8-9.5-9.33-11-14.5Z" fill="#57548d"/><path d="M643,842c38-26,183.5-57.5,251.5-70l56,70-222,86.5c-9.532,4.515-17,17.5-17,21.5c0,4.561,5.5,186.83,10.5,278.5h-86c-13.5-62-30-297.5-27-333.5c2.4-28.8,23.667-47.333,34-53Z" fill="#3d3d79"/><path d="M753,867.5c30-27,97.833-66.833,138.5-92.5h116L1145,846.5c4.5,3.5-19.5,30.5-30.5,36s-112.5,27.5-204,45.5c-73.2,14.4-62.461,20.045-66,34.5s39.49,167.12,67,236.5L832,1232c-33.151-66.3-88.429-218.21-102.5-287.5-9.2-22.8,10.833-58.5,23.5-77Z" fill="#57548d"/><g id="esaiemYW4lP13" transform="translate(.000001 0)"><path d="M905.5,480l-55,114l40,42.5c-4.8,4.4-2,92.833,0,138c79.2,0,127.33,14.333,141.5,21.5c13.2,2,81.5,33.833,114,49.5c5.6,2,6-46.5,5.5-71l-41-271.5c-11.2-35.6-51.33-49.167-70-51.5-12.5.667-46,1.6-80,0s-50.833,18.333-55,28.5Z" fill="#ff8578"/><path d="M918.5,444c-43.2-58.4-28.333-123.833-14-148.5l120.5,19c2.4.4-1,92.833-3,139-3,6-43.5,39-55.5,32-9.6-5.6-6.667-27.667-4-38-11.667,2.333-36.8,4.9-44-3.5Z" fill="#fcc1a6"/><path d="M936.552,307.243c33.6-3.2,39.334,1.333,38,4c8,3.815,3.334,12.59,0,16.5-1.2,6.4,6.834,15.333,11,19c.8,37.2,6.667,32.5,9.5,25.5-3.5-27.5,19.498-32.5,22.498-25.5c8,1,1,68,5,66.5c3.2-1.2,7-5.833,8.5-8c13-36.5,18-58,20.5-65.5s-4-39.5-8.5-39.5c-12-.5-8-34.5-15-34.5-34.498,3.5-19.5-35-51.998-19s-19-14-39.5-2-32.5-2-48.5-4.5-34.5,14.5-30.5,41c3.2,21.2,21.667,28.833,30.5,30c2.167,0,14.9-.8,48.5-4Z" fill="#3d3d79"/></g><path d="M890.5,635.5L897,497l-47.5,95.5l41,43Z" fill="#f3685e"/><path d="M987.5,639l29.5-97-41.5,92l12,5Z" fill="#f8b094"/><path d="M1103.04,566c.91,58.63-3.54,155-58.38,167.408c0,0,43.77-45.408,58.38-167.408Z" fill="#f3685e"/><path d="M403,530h211l76,199.5h-214L403,530Z" fill="#8495a0"/><path d="M388,530.5h211L675,730h-214L388,530.5Z" fill="#acb5ba"/><path d="M680,717h76v13h-76v-13Z" fill="#8495a0"/><path d="M919.5,1237.5L901,1200l-53,21l9,20c6.167,3.67,22,11.1,36,11.5s23.5-9.83,26.5-15Zm-268.5,23l-2-31.5h58.5v28.5c0,15.6-37.667,8.5-56.5,3Z" fill="#fcc1a6"/><path d="M684.5,525.5c-10.4-2.8-37,26-36.5,30s4,4,7.5,4c2.8,0,12.167-9.334,16.5-14-.833,5.5-.8,19.6,6,32s29.834,9.166,40.5,6c14.667,20.5,53.1,71.8,89.5,113s70.167,29.166,82.5,18v-79L850,594l-13,28c-6.5.5-139.5-93-152.5-96.5Z" fill="#f8b094"/><path d="M1078.5,679.5L977.5,643c0,8.5-17.5,26-17.5,26s-67,18-178,30c-46.8-34.8-72.5,8.5-79.5,34.5h325.5c29.6,3.2,46-34.667,50.5-54Z" fill="#ffc1a4"/><rect width="1099" height="41" rx="16" ry="16" transform="translate(242 730)" fill="#141b57"/><path d="M292,771h34v549h-34v-549Zm778,0h34v549h-34v-549Z" fill="#d9d9d9"/><path d="M1257,771h34v549h-34v-549Zm-780,0h34v549h-34v-549Z" fill="#a69696"/><path d="M0,1320h1732v43h-1732Z" fill="#81a4b8"/><g><path d="M1279.5,1129c10.4,5.2,19.33,6.83,22.5,7c1.33-.67,5.1-2,9.5-2s14.5-12.33,19-18.5l-47-194c-2,1.6-26.83-23.333-39-36-32,62.4-27,108.667-20.5,124c4,1.2,15.33,39.5,20.5,58.5-1.6,17.2,22.67,47.83,35,61Z" fill="url(#esaiemYW4lP31-fill)"/><path d="M1433.29,1118.48c-9.94,7.26-19.02,10.69-22.31,11.49-1.53-.39-5.75-.94-10.37-.05-4.63.89-17.6-9.28-23.51-14.47l12.33-201.71c2.41,1.179,23.75-28.556,34.11-43.571c45.57,55.323,49.15,102.168,45.25,118.676-3.97,2-8.57,42.235-10.37,62.105c4.97,16.72-14.68,51.98-25.13,67.53Z" fill="url(#esaiemYW4lP32-fill)"/></g><path d="M1283,937c-4.4-46.4,33.5-101.667,53-123.5-3,7,52,68.5,55,77s0,51,0,53s5.5,100.5,4.5,150c-11.2,30-35,38.17-45.5,38.5-18-3.2-28.83-16.67-32-23-26.4-56-34.33-138-35-172Z" fill="url(#esaiemYW4lP33-fill)"/><path d="M1346.5,1025c-2.4-24-10.67-136.333-14.5-189.5c7,57.667,21,181.9,21,217.5-2.8,32.8,4.17,77,8,95h-11.5c-2-6,0-93-3-123ZM1314,1148h-10c-4-24.5-13-76.6-17-89-5-15.5-30-108.5-31.5-118.5-1.31-8.74-6.06-26.265-9.24-34.882-1.52-3.663-2.2-5.151-1.26-3.118.38.819.8,1.876,1.26,3.118c3.35,8.05,10.8,26.605,14.24,41.382c5,21.5,27,96.5,30,106s9.5,61.5,17.5,75.5c1.17,5.67,4,17.5,6,19.5Zm86,0h-10c0-1.6,1.33-9.33,2-13c5.2-10.4,17.5-67.67,23-95c2-3.2,6.17-33.33,8-48c0-6,6.33-33.833,9.5-47c2.4-9.2,7.33-37.5,9.5-50.5c1.2,3.2-1.83,25-3.5,35.5-5.6,8.8-14,73.67-17.5,105-3.5,4.5-17.67,78.67-21,113Z" fill="#767aea"/><path d="M1282.5,1148h143.5l-12.5,172h-122.5l-8.5-172Z" transform="translate(.148438 1.042114)" fill="#a9b6bc"/><path id="esaiemYW4lP36" d="M838,0h324v198h-324Z" fill="#ff8578"/><g id="esaiemYW4lP37"><path d="M1008.01,38l13.22,3.641-29.105,105.762-13.228-3.641L1008.01,38Zm32.57,29.507l44.71,20.04-5.31,11.863-44.72-20.04l5.32-11.863Z" fill="#fff"/><path d="M1035.26,112.547l44.72-20.04l5.31,11.863-44.71,20.04-5.32-11.863Z" fill="#fff"/><path d="M1078,88h8v16h-8v-16ZM958.683,124.41l-44.714-20.04l5.316-11.863L964,112.547l-5.317,11.863Z" fill="#fff"/><path d="M964,79.37L919.285,99.41l-5.316-11.863l44.714-20.039L964,79.37Z" fill="#fff"/><path d="M921.261,103.917h-8v-16h8v16Z" fill="#fff"/></g><g id="esaiemYW4lP43"><path d="M1150,383h184v132h-184Z" fill="#616bf0"/><path d="M1229.7,496.416c-6.91,0-11.98-1.116-15.22-3.348s-4.86-6.228-4.86-11.988c0-2.592.07-4.824.21-6.696.22-1.944.4-3.816.54-5.616.22-1.8.33-3.852.33-6.156c0-1.296-.44-2.52-1.3-3.672-.86-1.224-2.38-2.232-4.54-3.024-2.08-.792-5.07-1.224-8.96-1.296v-9.288c3.89-.072,6.88-.504,8.96-1.296c2.16-.792,3.68-1.764,4.54-2.916.86-1.224,1.3-2.484,1.3-3.78c0-2.232-.11-4.248-.33-6.048-.14-1.872-.32-3.78-.54-5.724-.14-1.944-.21-4.176-.21-6.696c0-5.832,1.62-9.828,4.86-11.988c3.24-2.232,8.31-3.348,15.22-3.348h8.32v8.424h-4.43c-2.95,0-5.22.216-6.8.648-1.59.432-2.7,1.188-3.35,2.268-.58,1.08-.86,2.628-.86,4.644-.000857,2.845303.069165,5.690185.21,8.532.22,2.808.33,5.832.33,9.072c0,4.104-.83,7.092-2.49,8.964-1.65,1.8-4.43,3.024-8.31,3.672v.432c3.88.648,6.66,1.908,8.31,3.78c1.66,1.8,2.49,4.752,2.49,8.856c0,3.24-.11,6.264-.33,9.072-.140835,2.841815-.210857,5.686697-.21,8.532c0,2.016.28,3.564.86,4.644.65,1.08,1.76,1.836,3.35,2.268c1.58.432,3.85.648,6.8.648h4.43v8.424h-8.32Zm18.43,0v-8.424h4.43c2.95,0,5.22-.216,6.8-.648c1.59-.432,2.67-1.188,3.24-2.268.58-1.08.87-2.628.87-4.644c0-2.88-.08-5.724-.22-8.532s-.22-5.832-.22-9.072c0-4.104.83-7.056,2.49-8.856c1.65-1.872,4.43-3.132,8.31-3.78v-.432c-3.88-.648-6.66-1.872-8.31-3.672-1.66-1.872-2.49-4.86-2.49-8.964c0-3.24.08-6.264.22-9.072s.22-5.652.22-8.532c0-2.016-.29-3.564-.87-4.644-.57-1.08-1.65-1.836-3.24-2.268-1.58-.432-3.85-.648-6.8-.648h-4.43v-8.424h8.32c6.91,0,11.98,1.116,15.22,3.348c3.24,2.16,4.86,6.156,4.86,11.988c0,2.52-.1,4.752-.32,6.696-.14,1.944-.32,3.852-.54,5.724-.22,1.8-.32,3.816-.32,6.048c0,1.296.43,2.556,1.29,3.78.87,1.152,2.38,2.124,4.54,2.916s5.18,1.224,9.07,1.296v9.288c-3.89.072-6.91.504-9.07,1.296s-3.67,1.8-4.54,3.024c-.86,1.152-1.29,2.376-1.29,3.672c0,2.304.1,4.356.32,6.156s.4,3.672.54,5.616c.22,1.872.32,4.104.32,6.696c0,5.76-1.62,9.756-4.86,11.988s-8.31,3.348-15.22,3.348h-8.32Z" fill="#fff"/></g><path d="M365,77h392v365h-392Z" fill="#112b46"/><path d="M429,151h62v6h-62v-6Zm51,180h127v6h-127v-6Zm-47,50h65v6h-65v-6Zm174,0h65v6h-65v-6Zm-11-25h127v6h-127v-6Zm25-50h49v6h-49v-6ZM476,252h46v6h-46v-6Zm76-76h62v6h-62v-6Z" fill="#ff8578"/><path d="M499,151h61v6h-61v-6Zm23,230h66v6h-66v-6Zm95-50h52v6h-52v-6ZM471,306h56v6h-56v-6Zm56-25h68v6h-68v-6Zm12-80h130v6h-130v-6Zm-59,0h42v6h-42v-6Z" fill="#fbd15c"/><path d="M452,176h87v6h-87v-6Zm-1,180h127v6h-127v-6Zm89-50h54v6h-54v-6ZM437,281h81v6h-81v-6Zm101-29h45v6h-45v-6Zm-30-26h147v6h-147v-6Z" fill="#616bf0"/><path d="M399,170h6v15h-6v-15Zm0,210h6v7h-6v-7Zm0-30h6v15h-6v-15Zm0-30h6v15h-6v-15Zm0-30h6v15h-6v-15Zm0-30h6v15h-6v-15Zm0-30h6v15h-6v-15Zm0-30h6v15h-6v-15Z" fill="#d9d9d9"/><path d="M365,77h392v39h-392Z" fill="#394073"/><path id="esaiemYW4lP52" d="M240,28h208v139h-208Z" fill="#fbd15c"/><path id="esaiemYW4lP53" d="M376.912,127.338l-15.739-15.74c5.083-6.487,7.835-14.497,7.811-22.739-.001215-15.015028-9.045587-28.551395-22.917-34.299-6.783788-2.809765-14.248356-3.545086-21.45-2.113-7.201,1.432-13.817,4.968-19.009,10.16-10.619256,10.617039-13.795814,26.586265-8.048,40.459c2.81,6.783,7.569,12.581,13.674,16.661c6.104968,4.079274,13.282581,6.256397,20.625,6.256c8.242.024,16.252-2.728,22.739-7.811l15.74,15.739c1.822446,1.798172,4.751554,1.798172,6.574,0c.432749-.430816.776004-.942979,1.01-1.507s.355-1.169.355-1.78-.121-1.216-.355-1.78-.577251-1.076184-1.01-1.507ZM304.016,88.859c0-5.507,1.633-10.89,4.692-15.469s7.408-8.148,12.496-10.255c7.702123-3.191729,16.429271-2.763599,23.782008,1.16668s12.557021,10.948955,14.181992,19.12632c1.074048,5.401006.522825,10.999197-1.584,16.087-2.108,5.088-5.677,9.436-10.255,12.496-4.579339,3.059144-9.962849,4.691945-15.47,4.692-7.381-.01-14.457-2.947-19.677-8.166-5.219719-5.219634-8.15639-12.296269-8.166-19.678Z"/>
<script><![CDATA[
!function(t,n){"object"==typeof exports&&"undefined"!=typeof module?module.exports=n():"function"==typeof __SVGATOR_DEFINE__&&__SVGATOR_DEFINE__.amd?__SVGATOR_DEFINE__(n):((t="undefined"!=typeof globalThis?globalThis:t||self).__SVGATOR_PLAYER__=t.__SVGATOR_PLAYER__||{},t.__SVGATOR_PLAYER__["5c7f360c"]=n())}(this,(function(){"use strict";function t(t,n){var e=Object.keys(t);if(Object.getOwnPropertySymbols){var r=Object.getOwnPropertySymbols(t);n&&(r=r.filter((function(n){return Object.getOwnPropertyDescriptor(t,n).enumerable}))),e.push.apply(e,r)}return e}function n(n){for(var e=1;e<arguments.length;e++){var r=null!=arguments[e]?arguments[e]:{};e%2?t(Object(r),!0).forEach((function(t){o(n,t,r[t])})):Object.getOwnPropertyDescriptors?Object.defineProperties(n,Object.getOwnPropertyDescriptors(r)):t(Object(r)).forEach((function(t){Object.defineProperty(n,t,Object.getOwnPropertyDescriptor(r,t))}))}return n}function e(t){return(e="function"==typeof Symbol&&"symbol"==typeof Symbol.iterator?function(t){return typeof t}:function(t){return t&&"function"==typeof Symbol&&t.constructor===Symbol&&t!==Symbol.prototype?"symbol":typeof t})(t)}function r(t,n){if(!(t instanceof n))throw new TypeError("Cannot call a class as a function")}function i(t,n){for(var e=0;e<n.length;e++){var r=n[e];r.enumerable=r.enumerable||!1,r.configurable=!0,"value"in r&&(r.writable=!0),Object.defineProperty(t,r.key,r)}}function u(t,n,e){return n&&i(t.prototype,n),e&&i(t,e),t}function o(t,n,e){return n in t?Object.defineProperty(t,n,{value:e,enumerable:!0,configurable:!0,writable:!0}):t[n]=e,t}function a(t){return(a=Object.setPrototypeOf?Object.getPrototypeOf:function(t){return t.__proto__||Object.getPrototypeOf(t)})(t)}function l(t,n){return(l=Object.setPrototypeOf||function(t,n){return t.__proto__=n,t})(t,n)}function s(){if("undefined"==typeof Reflect||!Reflect.construct)return!1;if(Reflect.construct.sham)return!1;if("function"==typeof Proxy)return!0;try{return Boolean.prototype.valueOf.call(Reflect.construct(Boolean,[],(function(){}))),!0}catch(t){return!1}}function f(t,n,e){return(f=s()?Reflect.construct:function(t,n,e){var r=[null];r.push.apply(r,n);var i=new(Function.bind.apply(t,r));return e&&l(i,e.prototype),i}).apply(null,arguments)}function c(t,n){if(n&&("object"==typeof n||"function"==typeof n))return n;if(void 0!==n)throw new TypeError("Derived constructors may only return object or undefined");return function(t){if(void 0===t)throw new ReferenceError("this hasn't been initialised - super() hasn't been called");return t}(t)}function h(t,n,e){return(h="undefined"!=typeof Reflect&&Reflect.get?Reflect.get:function(t,n,e){var r=function(t,n){for(;!Object.prototype.hasOwnProperty.call(t,n)&&null!==(t=a(t)););return t}(t,n);if(r){var i=Object.getOwnPropertyDescriptor(r,n);return i.get?i.get.call(e):i.value}})(t,n,e||t)}function v(t){return function(t){if(Array.isArray(t))return y(t)}(t)||function(t){if("undefined"!=typeof Symbol&&null!=t[Symbol.iterator]||null!=t["@@iterator"])return Array.from(t)}(t)||function(t,n){if(!t)return;if("string"==typeof t)return y(t,n);var e=Object.prototype.toString.call(t).slice(8,-1);"Object"===e&&t.constructor&&(e=t.constructor.name);if("Map"===e||"Set"===e)return Array.from(t);if("Arguments"===e||/^(?:Ui|I)nt(?:8|16|32)(?:Clamped)?Array$/.test(e))return y(t,n)}(t)||function(){throw new TypeError("Invalid attempt to spread non-iterable instance.\nIn order to be iterable, non-array objects must have a [Symbol.iterator]() method.")}()}function y(t,n){(null==n||n>t.length)&&(n=t.length);for(var e=0,r=new Array(n);e<n;e++)r[e]=t[e];return r}Number.isInteger||(Number.isInteger=function(t){return"number"==typeof t&&isFinite(t)&&Math.floor(t)===t}),Number.EPSILON||(Number.EPSILON=2220446049250313e-31);var g=p(Math.pow(10,-6));function p(t){var n=arguments.length>1&&void 0!==arguments[1]?arguments[1]:6;if(Number.isInteger(t))return t;var e=Math.pow(10,n);return Math.round((+t+Number.EPSILON)*e)/e}function d(t,n){var e=arguments.length>2&&void 0!==arguments[2]?arguments[2]:g;return Math.abs(t-n)<e}var m=Math.PI/180;function b(t){return t}function w(t,n,e){var r=1-e;return 3*e*r*(t*r+n*e)+e*e*e}function A(){var t=arguments.length>0&&void 0!==arguments[0]?arguments[0]:0,n=arguments.length>1&&void 0!==arguments[1]?arguments[1]:0,e=arguments.length>2&&void 0!==arguments[2]?arguments[2]:1,r=arguments.length>3&&void 0!==arguments[3]?arguments[3]:1;return t<0||t>1||e<0||e>1?null:d(t,n)&&d(e,r)?b:function(i){if(i<=0)return t>0?i*n/t:0===n&&e>0?i*r/e:0;if(i>=1)return e<1?1+(i-1)*(r-1)/(e-1):1===e&&t<1?1+(i-1)*(n-1)/(t-1):1;for(var u,o=0,a=1;o<a;){var l=w(t,e,u=(o+a)/2);if(d(i,l))break;l<i?o=u:a=u}return w(n,r,u)}}function _(){return 1}function x(t){return 1===t?1:0}function k(){var t=arguments.length>0&&void 0!==arguments[0]?arguments[0]:1,n=arguments.length>1&&void 0!==arguments[1]?arguments[1]:0;if(1===t){if(0===n)return x;if(1===n)return _}var e=1/t;return function(t){return t>=1?1:(t+=n*e)-t%e}}var S=Math.sin,O=Math.cos,j=Math.acos,E=Math.asin,M=Math.tan,P=Math.atan2,I=Math.PI/180,R=180/Math.PI,F=Math.sqrt,N=function(){function t(){var n=arguments.length>0&&void 0!==arguments[0]?arguments[0]:1,e=arguments.length>1&&void 0!==arguments[1]?arguments[1]:0,i=arguments.length>2&&void 0!==arguments[2]?arguments[2]:0,u=arguments.length>3&&void 0!==arguments[3]?arguments[3]:1,o=arguments.length>4&&void 0!==arguments[4]?arguments[4]:0,a=arguments.length>5&&void 0!==arguments[5]?arguments[5]:0;r(this,t),this.m=[n,e,i,u,o,a],this.i=null,this.w=null,this.s=null}return u(t,[{key:"determinant",get:function(){var t=this.m;return t[0]*t[3]-t[1]*t[2]}},{key:"isIdentity",get:function(){if(null===this.i){var t=this.m;this.i=1===t[0]&&0===t[1]&&0===t[2]&&1===t[3]&&0===t[4]&&0===t[5]}return this.i}},{key:"point",value:function(t,n){var e=this.m;return{x:e[0]*t+e[2]*n+e[4],y:e[1]*t+e[3]*n+e[5]}}},{key:"translateSelf",value:function(){var t=arguments.length>0&&void 0!==arguments[0]?arguments[0]:0,n=arguments.length>1&&void 0!==arguments[1]?arguments[1]:0;if(!t&&!n)return this;var e=this.m;return e[4]+=e[0]*t+e[2]*n,e[5]+=e[1]*t+e[3]*n,this.w=this.s=this.i=null,this}},{key:"rotateSelf",value:function(){var t=arguments.length>0&&void 0!==arguments[0]?arguments[0]:0;if(t%=360){var n=S(t*=I),e=O(t),r=this.m,i=r[0],u=r[1];r[0]=i*e+r[2]*n,r[1]=u*e+r[3]*n,r[2]=r[2]*e-i*n,r[3]=r[3]*e-u*n,this.w=this.s=this.i=null}return this}},{key:"scaleSelf",value:function(){var t=arguments.length>0&&void 0!==arguments[0]?arguments[0]:1,n=arguments.length>1&&void 0!==arguments[1]?arguments[1]:1;if(1!==t||1!==n){var e=this.m;e[0]*=t,e[1]*=t,e[2]*=n,e[3]*=n,this.w=this.s=this.i=null}return this}},{key:"skewSelf",value:function(t,n){if(n%=360,(t%=360)||n){var e=this.m,r=e[0],i=e[1],u=e[2],o=e[3];t&&(t=M(t*I),e[2]+=r*t,e[3]+=i*t),n&&(n=M(n*I),e[0]+=u*n,e[1]+=o*n),this.w=this.s=this.i=null}return this}},{key:"resetSelf",value:function(){var t=arguments.length>0&&void 0!==arguments[0]?arguments[0]:1,n=arguments.length>1&&void 0!==arguments[1]?arguments[1]:0,e=arguments.length>2&&void 0!==arguments[2]?arguments[2]:0,r=arguments.length>3&&void 0!==arguments[3]?arguments[3]:1,i=arguments.length>4&&void 0!==arguments[4]?arguments[4]:0,u=arguments.length>5&&void 0!==arguments[5]?arguments[5]:0,o=this.m;return o[0]=t,o[1]=n,o[2]=e,o[3]=r,o[4]=i,o[5]=u,this.w=this.s=this.i=null,this}},{key:"recomposeSelf",value:function(){var t=arguments.length>0&&void 0!==arguments[0]?arguments[0]:null,n=arguments.length>1&&void 0!==arguments[1]?arguments[1]:null,e=arguments.length>2&&void 0!==arguments[2]?arguments[2]:null,r=arguments.length>3&&void 0!==arguments[3]?arguments[3]:null,i=arguments.length>4&&void 0!==arguments[4]?arguments[4]:null;return this.isIdentity||this.resetSelf(),t&&(t.x||t.y)&&this.translateSelf(t.x,t.y),n&&this.rotateSelf(n),e&&(e.x&&this.skewSelf(e.x,0),e.y&&this.skewSelf(0,e.y)),!r||1===r.x&&1===r.y||this.scaleSelf(r.x,r.y),i&&(i.x||i.y)&&this.translateSelf(i.x,i.y),this}},{key:"decompose",value:function(){var t=arguments.length>0&&void 0!==arguments[0]?arguments[0]:0,n=arguments.length>1&&void 0!==arguments[1]?arguments[1]:0,e=this.m,r=e[0]*e[0]+e[1]*e[1],i=[[e[0],e[1]],[e[2],e[3]]],u=F(r);if(0===u)return{origin:{x:p(e[4]),y:p(e[5])},translate:{x:p(t),y:p(n)},scale:{x:0,y:0},skew:{x:0,y:0},rotate:0};i[0][0]/=u,i[0][1]/=u;var o=e[0]*e[3]-e[1]*e[2]<0;o&&(u=-u);var a=i[0][0]*i[1][0]+i[0][1]*i[1][1];i[1][0]-=i[0][0]*a,i[1][1]-=i[0][1]*a;var l=F(i[1][0]*i[1][0]+i[1][1]*i[1][1]);if(0===l)return{origin:{x:p(e[4]),y:p(e[5])},translate:{x:p(t),y:p(n)},scale:{x:p(u),y:0},skew:{x:0,y:0},rotate:0};i[1][0]/=l,i[1][1]/=l,a/=l;var s=0;return i[1][1]<0?(s=j(i[1][1])*R,i[0][1]<0&&(s=360-s)):s=E(i[0][1])*R,o&&(s=-s),a=P(a,F(i[0][0]*i[0][0]+i[0][1]*i[0][1]))*R,o&&(a=-a),{origin:{x:p(e[4]),y:p(e[5])},translate:{x:p(t),y:p(n)},scale:{x:p(u),y:p(l)},skew:{x:p(a),y:0},rotate:p(s)}}},{key:"clone",value:function(){var t=this.m;return new this.constructor(t[0],t[1],t[2],t[3],t[4],t[5])}},{key:"toString",value:function(){var t=arguments.length>0&&void 0!==arguments[0]?arguments[0]:" ";if(null===this.s){var n=this.m.map((function(t){return p(t)}));1===n[0]&&0===n[1]&&0===n[2]&&1===n[3]?this.s="translate("+n[4]+t+n[5]+")":this.s="matrix("+n.join(t)+")"}return this.s}}],[{key:"create",value:function(t){return t?Array.isArray(t)?f(this,v(t)):t instanceof this?t.clone():(new this).recomposeSelf(t.origin,t.rotate,t.skew,t.scale,t.translate):new this}}]),t}();function T(t,n,e){return t>=.5?e:n}function q(t,n,e){return 0===t||n===e?n:t*(e-n)+n}function B(t,n,e){var r=q(t,n,e);return r<=0?0:r}function D(t,n,e){var r=q(t,n,e);return r<=0?0:r>=1?1:r}function L(t,n,e){return 0===t?n:1===t?e:{x:q(t,n.x,e.x),y:q(t,n.y,e.y)}}function C(t,n,e){var r=function(t,n,e){return Math.round(q(t,n,e))}(t,n,e);return r<=0?0:r>=255?255:r}function V(t,n,e){return 0===t?n:1===t?e:{r:C(t,n.r,e.r),g:C(t,n.g,e.g),b:C(t,n.b,e.b),a:q(t,null==n.a?1:n.a,null==e.a?1:e.a)}}function G(t,n){for(var e=[],r=0;r<t;r++)e.push(n);return e}function z(t,n){if(--n<=0)return t;var e=(t=Object.assign([],t)).length;do{for(var r=0;r<e;r++)t.push(t[r])}while(--n>0);return t}var Y,$=function(){function t(n){r(this,t),this.list=n,this.length=n.length}return u(t,[{key:"setAttribute",value:function(t,n){for(var e=this.list,r=0;r<this.length;r++)e[r].setAttribute(t,n)}},{key:"removeAttribute",value:function(t){for(var n=this.list,e=0;e<this.length;e++)n[e].removeAttribute(t)}},{key:"style",value:function(t,n){for(var e=this.list,r=0;r<this.length;r++)e[r].style[t]=n}}]),t}(),U=/-./g,Q=function(t,n){return n.toUpperCase()};function H(t){return"function"==typeof t?t:T}function J(t){return t?"function"==typeof t?t:Array.isArray(t)?function(t){var n=arguments.length>1&&void 0!==arguments[1]?arguments[1]:b;if(!Array.isArray(t))return n;switch(t.length){case 1:return k(t[0])||n;case 2:return k(t[0],t[1])||n;case 4:return A(t[0],t[1],t[2],t[3])||n}return n}(t,null):function(t,n){var e=arguments.length>2&&void 0!==arguments[2]?arguments[2]:b;switch(t){case"linear":return b;case"steps":return k(n.steps||1,n.jump||0)||e;case"bezier":case"cubic-bezier":return A(n.x1||0,n.y1||0,n.x2||0,n.y2||0)||e}return e}(t.type,t.value,null):null}function Z(t,n,e){var r=arguments.length>3&&void 0!==arguments[3]&&arguments[3],i=n.length-1;if(t<=n[0].t)return r?[0,0,n[0].v]:n[0].v;if(t>=n[i].t)return r?[i,1,n[i].v]:n[i].v;var u,o=n[0],a=null;for(u=1;u<=i;u++){if(!(t>n[u].t)){a=n[u];break}o=n[u]}return null==a?r?[i,1,n[i].v]:n[i].v:o.t===a.t?r?[u,1,a.v]:a.v:(t=(t-o.t)/(a.t-o.t),o.e&&(t=o.e(t)),r?[u,t,e(t,o.v,a.v)]:e(t,o.v,a.v))}function K(t,n){var e=arguments.length>2&&void 0!==arguments[2]?arguments[2]:null;return t&&t.length?"function"!=typeof n?null:("function"!=typeof e&&(e=null),function(r){var i=Z(r,t,n);return null!=i&&e&&(i=e(i)),i}):null}function W(t,n){return t.t-n.t}function X(t,n,r,i,u){var o,a="@"===r[0],l="#"===r[0],s=Y[r],f=T;switch(a?(o=r.substr(1),r=o.replace(U,Q)):l&&(r=r.substr(1)),e(s)){case"function":if(f=s(i,u,Z,J,r,a,n,t),l)return f;break;case"string":f=K(i,H(s));break;case"object":if((f=K(i,H(s.i),s.f))&&"function"==typeof s.u)return s.u(n,f,r,a,t)}return f?function(t,n,e){if(arguments.length>3&&void 0!==arguments[3]&&arguments[3])return t instanceof $?function(r){return t.style(n,e(r))}:function(r){return t.style[n]=e(r)};if(Array.isArray(n)){var r=n.length;return function(i){var u=e(i);if(null==u)for(var o=0;o<r;o++)t[o].removeAttribute(n);else for(var a=0;a<r;a++)t[a].setAttribute(n,u)}}return function(r){var i=e(r);null==i?t.removeAttribute(n):t.setAttribute(n,i)}}(n,r,f,a):null}function tt(t,n,r,i){if(!i||"object"!==e(i))return null;var u=null,o=null;return Array.isArray(i)?o=function(t){if(!t||!t.length)return null;for(var n=0;n<t.length;n++)t[n].e&&(t[n].e=J(t[n].e));return t.sort(W)}(i):(o=i.keys,u=i.data||null),o?X(t,n,r,o,u):null}function nt(t,n,e){if(!e)return null;var r=[];for(var i in e)if(e.hasOwnProperty(i)){var u=tt(t,n,i,e[i]);u&&r.push(u)}return r.length?r:null}function et(t,n){if(!n.settings.duration||n.settings.duration<0)return null;var e,r,i,u,o,a=function(t,n){if(!n)return null;var e=[];if(Array.isArray(n))for(var r=n.length,i=0;i<r;i++){var u=n[i];if(2===u.length){var o=null;if("string"==typeof u[0])o=t.getElementById(u[0]);else if(Array.isArray(u[0])){o=[];for(var a=0;a<u[0].length;a++)if("string"==typeof u[0][a]){var l=t.getElementById(u[0][a]);l&&o.push(l)}o=o.length?1===o.length?o[0]:new $(o):null}if(o){var s=nt(t,o,u[1]);s&&(e=e.concat(s))}}}else for(var f in n)if(n.hasOwnProperty(f)){var c=t.getElementById(f);if(c){var h=nt(t,c,n[f]);h&&(e=e.concat(h))}}return e.length?e:null}(t,n.elements);return a?(e=a,r=n.settings,i=r.duration,u=e.length,o=null,function(t,n){var a=r.iterations||1/0,l=(r.alternate&&a%2==0)^r.direction>0?i:0,s=t%i,f=1+(t-s)/i;n*=r.direction,r.alternate&&f%2==0&&(n=-n);var c=!1;if(f>a)s=l,c=!0,-1===r.fill&&(s=r.direction>0?0:i);else if(n<0&&(s=i-s),s===o)return!1;o=s;for(var h=0;h<u;h++)e[h](s);return c}):null}function rt(t,n){if(Y=n,!t||!t.root||!Array.isArray(t.animations))return null;var e=function(t){for(var n=document.getElementsByTagName("svg"),e=0;e<n.length;e++)if(n[e].id===t.root&&!n[e].svgatorAnimation)return n[e].svgatorAnimation=!0,n[e];return null}(t);if(!e)return null;var r=t.animations.map((function(t){return et(e,t)})).filter((function(t){return!!t}));return r.length?{svg:e,animations:r,animationSettings:t.animationSettings,options:t.options||void 0}:null}function it(t){return+("0x"+(t.replace(/[^0-9a-fA-F]+/g,"")||27))}function ut(t,n,e){return!t||!e||n>t.length?t:t.substring(0,n)+ut(t.substring(n+1),e,e)}function ot(t){var n=arguments.length>1&&void 0!==arguments[1]?arguments[1]:27;return!t||t%n?t%n:ot(t/n,n)}function at(t,n,e){if(t&&t.length){var r=it(e),i=it(n),u=ot(r)+5,o=ut(t,ot(r,5),u);return o=o.replace(/\x7c$/g,"==").replace(/\x2f$/g,"="),o=function(t,n,e){var r=+("0x"+t.substring(0,4));t=t.substring(4);for(var i=n%r+e%27,u=[],o=0;o<t.length;o+=2)if("|"!==t[o]){var a=+("0x"+t[o]+t[o+1])-i;u.push(a)}else{var l=+("0x"+t.substring(o+1,o+1+4))-i;o+=3,u.push(l)}return String.fromCharCode.apply(String,u)}(o=(o=atob(o)).replace(/[\x41-\x5A]/g,""),i,r),o=JSON.parse(o)}}var lt=[{key:"alternate",def:!1},{key:"fill",def:1},{key:"iterations",def:0},{key:"direction",def:1},{key:"speed",def:1},{key:"fps",def:100}],st=function(){function t(n,e){var i=this,u=arguments.length>2&&void 0!==arguments[2]?arguments[2]:null;r(this,t),this._id=0,this._running=!1,this._rollingBack=!1,this._animations=n,this._settings=e,(!u||u<"2022-05-02")&&delete this._settings.speed,lt.forEach((function(t){i._settings[t.key]=i._settings[t.key]||t.def})),this.duration=e.duration,this.offset=e.offset||0,this.rollbackStartOffset=0}return u(t,[{key:"alternate",get:function(){return this._settings.alternate}},{key:"fill",get:function(){return this._settings.fill}},{key:"iterations",get:function(){return this._settings.iterations}},{key:"direction",get:function(){return this._settings.direction}},{key:"speed",get:function(){return this._settings.speed}},{key:"fps",get:function(){return this._settings.fps}},{key:"maxFiniteDuration",get:function(){return this.iterations>0?this.iterations*this.duration:this.duration}},{key:"_apply",value:function(t){for(var n=arguments.length>1&&void 0!==arguments[1]?arguments[1]:{},e=this._animations,r=e.length,i=0,u=0;u<r;u++)n[u]?i++:(n[u]=e[u](t,1),n[u]&&i++);return i}},{key:"_rollback",value:function(t){var n=this,e=1/0,r=null;this.rollbackStartOffset=t,this._rollingBack=!0,this._running=!0;this._id=window.requestAnimationFrame((function i(u){if(n._rollingBack){null==r&&(r=u);var o=Math.round(t-(u-r)*n.speed);if(o>n.duration&&e!==1/0){var a=!!n.alternate&&o/n.duration%2>1,l=o%n.duration;o=(l+=a?n.duration:0)||n.duration}var s=(n.fps?1e3/n.fps:0)*n.speed,f=Math.max(0,o);f<=e-s&&(n.offset=f,e=f,n._apply(f));var c=n.iterations>0&&-1===n.fill&&o>=n.maxFiniteDuration;(o<=0||n.offset<o||c)&&n.stop(),n._id=window.requestAnimationFrame(i)}}))}},{key:"_start",value:function(){var t=this,n=arguments.length>0&&void 0!==arguments[0]?arguments[0]:0,e=-1/0,r=null,i={};this._running=!0;var u=function u(o){null==r&&(r=o);var a=Math.round((o-r)*t.speed+n),l=(t.fps?1e3/t.fps:0)*t.speed;if(a>=e+l&&!t._rollingBack&&(t.offset=a,e=a,t._apply(a,i)===t._animations.length))return void t.pause(!0);t._id=window.requestAnimationFrame(u)};this._id=window.requestAnimationFrame(u)}},{key:"_pause",value:function(){this._id&&window.cancelAnimationFrame(this._id),this._running=!1}},{key:"play",value:function(){if(!this._running)return this._rollingBack?this._rollback(this.offset):this._start(this.offset)}},{key:"stop",value:function(){this._pause(),this.offset=0,this.rollbackStartOffset=0,this._rollingBack=!1,this._apply(0)}},{key:"reachedToEnd",value:function(){return this.iterations>0&&this.offset>=this.iterations*this.duration}},{key:"restart",value:function(){var t=arguments.length>0&&void 0!==arguments[0]&&arguments[0];this.stop(t),this.play(t)}},{key:"pause",value:function(){this._pause()}},{key:"reverse",value:function(){this.direction=-this.direction}}],[{key:"build",value:function(t,n){delete t.animationSettings,t.options=at(t.options,t.root,"5c7f360c"),t.animations.map((function(n){n.settings=at(n.s,t.root,"5c7f360c"),delete n.s,t.animationSettings||(t.animationSettings=n.settings)}));var e=t.version;if(!(t=rt(t,n)))return null;var r=t.options||{},i=new this(t.animations,t.animationSettings,e);return{el:t.svg,options:r,player:i}}},{key:"push",value:function(t){return this.build(t)}},{key:"init",value:function(){var t=this,n=window.__SVGATOR_PLAYER__&&window.__SVGATOR_PLAYER__["5c7f360c"];Array.isArray(n)&&n.splice(0).forEach((function(n){return t.build(n)}))}}]),t}();function ft(t){return p(t)+""}function ct(t){var n=arguments.length>1&&void 0!==arguments[1]?arguments[1]:" ";return t&&t.length?t.map(ft).join(n):""}function ht(t){if(!t)return"transparent";if(null==t.a||t.a>=1){var n=function(t){return 1===(t=parseInt(t).toString(16)).length?"0"+t:t},e=function(t){return t.charAt(0)===t.charAt(1)},r=n(t.r),i=n(t.g),u=n(t.b);return e(r)&&e(i)&&e(u)&&(r=r.charAt(0),i=i.charAt(0),u=u.charAt(0)),"#"+r+i+u}return"rgba("+t.r+","+t.g+","+t.b+","+t.a+")"}function vt(t){return t?"url(#"+t+")":"none"}!function(){for(var t=0,n=["ms","moz","webkit","o"],e=0;e<n.length&&!window.requestAnimationFrame;++e)window.requestAnimationFrame=window[n[e]+"RequestAnimationFrame"],window.cancelAnimationFrame=window[n[e]+"CancelAnimationFrame"]||window[n[e]+"CancelRequestAnimationFrame"];window.requestAnimationFrame||(window.requestAnimationFrame=function(n){var e=Date.now(),r=Math.max(0,16-(e-t)),i=window.setTimeout((function(){n(e+r)}),r);return t=e+r,i},window.cancelAnimationFrame=window.clearTimeout)}();var yt={f:null,i:function(t,n,e){return 0===t?n:1===t?e:{x:B(t,n.x,e.x),y:B(t,n.y,e.y)}},u:function(t,n){return function(e){var r=n(e);t.setAttribute("rx",ft(r.x)),t.setAttribute("ry",ft(r.y))}}},gt={f:null,i:function(t,n,e){return 0===t?n:1===t?e:{width:B(t,n.width,e.width),height:B(t,n.height,e.height)}},u:function(t,n){return function(e){var r=n(e);t.setAttribute("width",ft(r.width)),t.setAttribute("height",ft(r.height))}}};Object.freeze({M:2,L:2,Z:0,H:1,V:1,C:6,Q:4,T:2,S:4,A:7});var pt={},dt=null;function mt(t){var n=function(){if(dt)return dt;if("object"!==("undefined"==typeof document?"undefined":e(document))||!document.createElementNS)return{};var t=document.createElementNS("http://www.w3.org/2000/svg","svg");return t&&t.style?(t.style.position="absolute",t.style.opacity="0.01",t.style.zIndex="-9999",t.style.left="-9999px",t.style.width="1px",t.style.height="1px",dt={svg:t}):{}}().svg;if(!n)return function(t){return null};var r=document.createElementNS(n.namespaceURI,"path");r.setAttributeNS(null,"d",t),r.setAttributeNS(null,"fill","none"),r.setAttributeNS(null,"stroke","none"),n.appendChild(r);var i=r.getTotalLength();return function(t){var n=r.getPointAtLength(i*t);return{x:n.x,y:n.y}}}function bt(t){return pt[t]?pt[t]:pt[t]=mt(t)}function wt(t,n,e,r){if(!t||!r)return!1;var i=["M",t.x,t.y];if(n&&e&&(i.push("C"),i.push(n.x),i.push(n.y),i.push(e.x),i.push(e.y)),n?!e:e){var u=n||e;i.push("Q"),i.push(u.x),i.push(u.y)}return n||e||i.push("L"),i.push(r.x),i.push(r.y),i.join(" ")}function At(t,n,e,r){var i=arguments.length>4&&void 0!==arguments[4]?arguments[4]:1,u=wt(t,n,e,r),o=bt(u);try{return o(i)}catch(t){return null}}function _t(t,n,e){return t+(n-t)*e}function xt(t,n,e){var r=arguments.length>3&&void 0!==arguments[3]&&arguments[3],i={x:_t(t.x,n.x,e),y:_t(t.y,n.y,e)};return r&&(i.a=kt(t,n)),i}function kt(t,n){return Math.atan2(n.y-t.y,n.x-t.x)}function St(t,n,e,r){var i=1-r;return i*i*t+2*i*r*n+r*r*e}function Ot(t,n,e,r){return 2*(1-r)*(n-t)+2*r*(e-n)}function jt(t,n,e,r){var i=arguments.length>4&&void 0!==arguments[4]&&arguments[4],u=At(t,n,null,e,r);return u||(u={x:St(t.x,n.x,e.x,r),y:St(t.y,n.y,e.y,r)}),i&&(u.a=Et(t,n,e,r)),u}function Et(t,n,e,r){return Math.atan2(Ot(t.y,n.y,e.y,r),Ot(t.x,n.x,e.x,r))}function Mt(t,n,e,r,i){var u=i*i;return i*u*(r-t+3*(n-e))+3*u*(t+e-2*n)+3*i*(n-t)+t}function Pt(t,n,e,r,i){var u=1-i;return 3*(u*u*(n-t)+2*u*i*(e-n)+i*i*(r-e))}function It(t,n,e,r,i){var u=arguments.length>5&&void 0!==arguments[5]&&arguments[5],o=At(t,n,e,r,i);return o||(o={x:Mt(t.x,n.x,e.x,r.x,i),y:Mt(t.y,n.y,e.y,r.y,i)}),u&&(o.a=Rt(t,n,e,r,i)),o}function Rt(t,n,e,r,i){return Math.atan2(Pt(t.y,n.y,e.y,r.y,i),Pt(t.x,n.x,e.x,r.x,i))}function Ft(t,n,e){var r=arguments.length>3&&void 0!==arguments[3]&&arguments[3];if(Tt(n)){if(qt(e))return jt(n,e.start,e,t,r)}else if(Tt(e)){if(Bt(n))return jt(n,n.end,e,t,r)}else{if(Bt(n))return qt(e)?It(n,n.end,e.start,e,t,r):jt(n,n.end,e,t,r);if(qt(e))return jt(n,e.start,e,t,r)}return xt(n,e,t,r)}function Nt(t,n,e){var r=Ft(t,n,e,!0);return r.a=function(t){return arguments.length>1&&void 0!==arguments[1]&&arguments[1]?t+Math.PI:t}(r.a)/m,r}function Tt(t){return!t.type||"corner"===t.type}function qt(t){return null!=t.start&&!Tt(t)}function Bt(t){return null!=t.end&&!Tt(t)}var Dt=new N;var Lt={f:ft,i:q},Ct={f:ft,i:D};function Vt(t,n,e){return t.map((function(t){return function(t,n,e){var r=t.v;if(!r||"g"!==r.t||r.s||!r.v||!r.r)return t;var i=e.getElementById(r.r),u=i&&i.querySelectorAll("stop")||[];return r.s=r.v.map((function(t,n){var e=u[n]&&u[n].getAttribute("offset");return{c:t,o:e=p(parseInt(e)/100)}})),delete r.v,t}(t,0,e)}))}var Gt={gt:"gradientTransform",c:{x:"cx",y:"cy"},rd:"r",f:{x:"x1",y:"y1"},to:{x:"x2",y:"y2"}};function zt(t,n,r,i,u,o,a,l){return Vt(t,0,l),n=function(t,n,e){for(var r,i,u,o=t.length-1,a={},l=0;l<=o;l++)(r=t[l]).e&&(r.e=n(r.e)),r.v&&"g"===(i=r.v).t&&i.r&&(u=e.getElementById(i.r))&&(a[i.r]={e:u,s:u.querySelectorAll("stop")});return a}(t,i,l),function(i){var u=r(i,t,Yt);if(!u)return"none";if("c"===u.t)return ht(u.v);if("g"===u.t){if(!n[u.r])return vt(u.r);var o=n[u.r];return function(t,n){for(var e=t.s,r=e.length;r<n.length;r++){var i=e[e.length-1].cloneNode();i.id=Qt(i.id),t.e.appendChild(i),e=t.s=t.e.querySelectorAll("stop")}for(var u=0,o=e.length,a=n.length-1;u<o;u++)e[u].setAttribute("stop-color",ht(n[Math.min(u,a)].c)),e[u].setAttribute("offset",n[Math.min(u,a)].o)}(o,u.s),Object.keys(Gt).forEach((function(t){if(void 0!==u[t])if("object"!==e(Gt[t])){var n,r="gt"===t?(n=u[t],Array.isArray(n)?"matrix("+n.join(" ")+")":""):u[t],i=Gt[t];o.e.setAttribute(i,r)}else Object.keys(Gt[t]).forEach((function(n){if(void 0!==u[t][n]){var e=u[t][n],r=Gt[t][n];o.e.setAttribute(r,e)}}))})),vt(u.r)}return"none"}}function Yt(t,e,r){if(0===t)return e;if(1===t)return r;if(e&&r){var i=e.t;if(i===r.t)switch(e.t){case"c":return{t:i,v:V(t,e.v,r.v)};case"g":if(e.r===r.r){var u={t:i,s:$t(t,e.s,r.s),r:e.r};return e.gt&&r.gt&&(u.gt=function(t,n,e){var r=n.length;if(r!==e.length)return T(t,n,e);for(var i=new Array(r),u=0;u<r;u++)i[u]=q(t,n[u],e[u]);return i}(t,e.gt,r.gt)),e.c?(u.c=L(t,e.c,r.c),u.rd=B(t,e.rd,r.rd)):e.f&&(u.f=L(t,e.f,r.f),u.to=L(t,e.to,r.to)),u}}if("c"===e.t&&"g"===r.t||"c"===r.t&&"g"===e.t){var o="c"===e.t?e:r,a="g"===e.t?n({},e):n({},r),l=a.s.map((function(t){return{c:o.v,o:t.o}}));return a.s="c"===e.t?$t(t,l,a.s):$t(t,a.s,l),a}}return T(t,e,r)}function $t(t,n,e){if(n.length===e.length)return n.map((function(n,r){return Ut(t,n,e[r])}));for(var r=Math.max(n.length,e.length),i=[],u=0;u<r;u++){var o=Ut(t,n[Math.min(u,n.length-1)],e[Math.min(u,e.length-1)]);i.push(o)}return i}function Ut(t,n,e){return{o:D(t,n.o,e.o||0),c:V(t,n.c,e.c||{})}}function Qt(t){return t.replace(/-fill-([0-9]+)$/,(function(t,n){return"-fill-"+(+n+1)}))}var Ht={fill:zt,"fill-opacity":Ct,stroke:zt,"stroke-opacity":Ct,"stroke-width":Lt,"stroke-dashoffset":{f:ft,i:q},"stroke-dasharray":{f:function(t){var n=arguments.length>1&&void 0!==arguments[1]?arguments[1]:" ";return t&&t.length>0&&(t=t.map((function(t){return p(t,4)}))),ct(t,n)},i:function(t,n,e){var r,i,u,o=n.length,a=e.length;if(o!==a)if(0===o)n=G(o=a,0);else if(0===a)a=o,e=G(o,0);else{var l=(u=(r=o)*(i=a)/function(t,n){for(var e;n;)e=n,n=t%n,t=e;return t||1}(r,i))<0?-u:u;n=z(n,Math.floor(l/o)),e=z(e,Math.floor(l/a)),o=a=l}for(var s=[],f=0;f<o;f++)s.push(p(B(t,n[f],e[f])));return s}},opacity:Ct,transform:function(t,n,r,i){if(!(t=function(t,n){if(!t||"object"!==e(t))return null;var r=!1;for(var i in t)t.hasOwnProperty(i)&&(t[i]&&t[i].length?(t[i].forEach((function(t){t.e&&(t.e=n(t.e))})),r=!0):delete t[i]);return r?t:null}(t,i)))return null;var u=function(e,i,u){var o=arguments.length>3&&void 0!==arguments[3]?arguments[3]:null;return t[e]?r(i,t[e],u):n&&n[e]?n[e]:o};return n&&n.a&&t.o?function(n){var e=r(n,t.o,Nt);return Dt.recomposeSelf(e,u("r",n,q,0)+e.a,u("k",n,L),u("s",n,L),u("t",n,L)).toString()}:function(t){return Dt.recomposeSelf(u("o",t,Ft,null),u("r",t,q,0),u("k",t,L),u("s",t,L),u("t",t,L)).toString()}},r:Lt,"#size":gt,"#radius":yt,_:function(t,n){if(Array.isArray(t))for(var e=0;e<t.length;e++)this[t[e]]=n;else this[t]=n}},Jt=function(t){!function(t,n){if("function"!=typeof n&&null!==n)throw new TypeError("Super expression must either be null or a function");t.prototype=Object.create(n&&n.prototype,{constructor:{value:t,writable:!0,configurable:!0}}),n&&l(t,n)}(o,t);var n,e,i=(n=o,e=s(),function(){var t,r=a(n);if(e){var i=a(this).constructor;t=Reflect.construct(r,arguments,i)}else t=r.apply(this,arguments);return c(this,t)});function o(){return r(this,o),i.apply(this,arguments)}return u(o,null,[{key:"build",value:function(t){var n=h(a(o),"build",this).call(this,t,Ht);if(!n)return null;n.el,n.options,function(t,n,e){t.play()}(n.player)}}]),o}(st);return Jt.init(),Jt}));
(function(s,i,o,w,d,a,b){w[o]=w[o]||{};w[o][s]=w[o][s]||[];w[o][s].push(i);})('5c7f360c',{"root":"esaiemYW4lP1","version":"2022-05-04","animations":[{"elements":{"esaiemYW4lP13":{"transform":{"data":{"o":{"x":1001.079041,"y":542.779968,"type":"corner"},"t":{"x":-1001.07904,"y":-542.779968}},"keys":{"r":[{"t":0,"v":0},{"t":1100,"v":3.688843},{"t":3000,"v":0}]}}},"esaiemYW4lP36":{"transform":{"data":{"t":{"x":-1000,"y":-99}},"keys":{"o":[{"t":30,"v":{"x":1000,"y":99,"type":"corner"}},{"t":500,"v":{"x":1009,"y":108,"type":"corner"}},{"t":1000,"v":{"x":999.630493,"y":92.7015,"type":"corner","start":{"x":999.630493,"y":92.7015},"end":{"x":999.630493,"y":92.7015}}},{"t":1470,"v":{"x":1008.630493,"y":101.7015,"type":"corner"}},{"t":1900,"v":{"x":999.630493,"y":92.7015,"type":"corner","start":{"x":999.630493,"y":92.7015},"end":{"x":999.630493,"y":92.7015}}},{"t":1970,"v":{"x":999.630493,"y":92.7015,"type":"corner"}},{"t":2370,"v":{"x":1008.630493,"y":101.7015,"type":"corner"}},{"t":2870,"v":{"x":999.630493,"y":92.7015,"type":"corner"}}]}}},"esaiemYW4lP37":{"transform":{"data":{"t":{"x":-999.630493,"y":-92.7015}},"keys":{"o":[{"t":30,"v":{"x":999.630493,"y":92.7015,"type":"corner"}},{"t":500,"v":{"x":1008.630493,"y":101.7015,"type":"corner"}},{"t":1000,"v":{"x":999.630493,"y":92.7015,"type":"corner","start":{"x":999.630493,"y":92.7015},"end":{"x":999.630493,"y":92.7015}}},{"t":1470,"v":{"x":1008.630493,"y":101.7015,"type":"corner"}},{"t":1900,"v":{"x":999.630493,"y":92.7015,"type":"corner","start":{"x":999.630493,"y":92.7015},"end":{"x":999.630493,"y":92.7015}}},{"t":1970,"v":{"x":999.630493,"y":92.7015,"type":"corner"}},{"t":2370,"v":{"x":1008.630493,"y":101.7015,"type":"corner"}},{"t":2870,"v":{"x":999.630493,"y":92.7015,"type":"corner"}}]}}},"esaiemYW4lP43":{"transform":{"data":{"t":{"x":-1242,"y":-449}},"keys":{"o":[{"t":0,"v":{"x":1242,"y":449,"type":"corner"}},{"t":500,"v":{"x":1242,"y":439,"type":"corner"}},{"t":1000,"v":{"x":1242,"y":449,"type":"corner","start":{"x":1242,"y":449},"end":{"x":1242,"y":449}}},{"t":1500,"v":{"x":1242,"y":439,"type":"corner"}},{"t":2000,"v":{"x":1242,"y":449,"type":"corner","start":{"x":1242,"y":449},"end":{"x":1242,"y":449}}},{"t":2500,"v":{"x":1242,"y":439,"type":"corner","start":{"x":1242,"y":439},"end":{"x":1242,"y":439}}},{"t":3000,"v":{"x":1242,"y":448,"type":"corner","start":{"x":1242,"y":448}}}]}}},"esaiemYW4lP52":{"transform":{"data":{"t":{"x":-344,"y":-97.5}},"keys":{"o":[{"t":0,"v":{"x":344,"y":97.5,"type":"corner"}},{"t":500,"v":{"x":344,"y":107.5,"type":"corner"}},{"t":1000,"v":{"x":336.505035,"y":93.496799,"type":"corner"}},{"t":1500,"v":{"x":336.505035,"y":103.496799,"type":"corner"}},{"t":2000,"v":{"x":336.505035,"y":93.496799,"type":"corner"}},{"t":2500,"v":{"x":336.505035,"y":103.496799,"type":"corner"}},{"t":3000,"v":{"x":336.505035,"y":94.496799,"type":"corner"}}]}}},"esaiemYW4lP53":{"transform":{"data":{"t":{"x":-336.505035,"y":-93.496799}},"keys":{"o":[{"t":0,"v":{"x":336.505035,"y":93.496799,"type":"corner"}},{"t":500,"v":{"x":336.505035,"y":103.496799,"type":"corner"}},{"t":1000,"v":{"x":336.505035,"y":93.496799,"type":"corner"}},{"t":1500,"v":{"x":336.505035,"y":103.496799,"type":"corner"}},{"t":2000,"v":{"x":336.505035,"y":93.496799,"type":"corner"}},{"t":2500,"v":{"x":336.505035,"y":103.496799,"type":"corner"}},{"t":3000,"v":{"x":336.505035,"y":94.496799,"type":"corner"}}]}}}},"s":"MRDA1ZFRhMzRhOGM5ZDUlhODk5YzkxVDk3OTYJ0YTYyNWI1ODU4VDU4ANTQ0YThjOTE5YThkOVGI5YzkxOTc5NjRhNjXI1OUc1NDRhOTFHOWMA4ZDlhODk5YzkxOTc5ONjliNGFLNjI1ODU0NWGFGOGVFOTE5NDk0NGVE2MjU5NTRTQjRhODkL5NDljOGQ5YTk2RTg5MOWM4ZDRhNjI4ZTg5OXTQ5YjhkNTQ0YTliOTVg4ZDhkOGM0YTYyNTkL1NDRhOGU5ODliNGE2XMkw1OTU4NThhNQ|"}],"options":"MRDAxMDg4SjJmODA4MTYZlN2Y4MTJmNDdTMmYA3OTdjNmU3MTJmOGE/R"},'__SVGATOR_PLAYER__',window,document)
]]></script>
</svg>
